<mxfile host="65bd71144e">
    <diagram id="kqgtymZG6JO0syrsVaAS" name="Page-1">
        <mxGraphModel dx="678" dy="1602" grid="1" gridSize="10" guides="1" tooltips="1" connect="1" arrows="1" fold="1" page="1" pageScale="1" pageWidth="850" pageHeight="1100" math="0" shadow="0">
            <root>
                <mxCell id="0"/>
                <mxCell id="1" parent="0"/>
                <mxCell id="2" value="Product" style="whiteSpace=wrap;html=1;aspect=fixed;fillColor=#f5f5f5;fontColor=#333333;strokeColor=default;strokeWidth=1;labelBackgroundColor=none;" vertex="1" parent="1">
                    <mxGeometry x="350" y="35" width="100" height="100" as="geometry"/>
                </mxCell>
                <mxCell id="3" value="Website" style="text;html=1;align=center;verticalAlign=middle;resizable=0;points=[];autosize=1;strokeColor=default;fillColor=#f5f5f5;fontColor=#333333;strokeWidth=1;labelBackgroundColor=none;" vertex="1" parent="1">
                    <mxGeometry x="365" y="-1" width="70" height="30" as="geometry"/>
                </mxCell>
                <mxCell id="4" value="NotifyMe" style="rounded=0;whiteSpace=wrap;html=1;fillColor=#f5f5f5;fontColor=#333333;strokeColor=default;strokeWidth=1;labelBackgroundColor=none;" vertex="1" parent="1">
                    <mxGeometry x="365" y="90" width="70" height="20" as="geometry"/>
                </mxCell>
                <mxCell id="5" value="To Implement this Notify me we use Observer Pattern" style="text;html=1;align=center;verticalAlign=middle;resizable=0;points=[];autosize=1;strokeColor=default;fillColor=#f5f5f5;fontColor=#333333;strokeWidth=1;labelBackgroundColor=none;" vertex="1" parent="1">
                    <mxGeometry x="240" y="150" width="310" height="30" as="geometry"/>
                </mxCell>
                <mxCell id="6" value="" style="ellipse;whiteSpace=wrap;html=1;aspect=fixed;fillColor=#f5f5f5;fontColor=#333333;strokeColor=default;strokeWidth=1;labelBackgroundColor=none;" vertex="1" parent="1">
                    <mxGeometry x="160" y="200" width="120" height="120" as="geometry"/>
                </mxCell>
                <mxCell id="7" value="" style="ellipse;whiteSpace=wrap;html=1;aspect=fixed;fillColor=#f5f5f5;fontColor=#333333;strokeColor=default;strokeWidth=1;labelBackgroundColor=none;" vertex="1" parent="1">
                    <mxGeometry x="440" y="200" width="120" height="120" as="geometry"/>
                </mxCell>
                <mxCell id="8" value="Observable" style="text;html=1;align=center;verticalAlign=middle;resizable=0;points=[];autosize=1;strokeColor=default;fillColor=#f5f5f5;fontColor=#333333;strokeWidth=1;labelBackgroundColor=none;" vertex="1" parent="1">
                    <mxGeometry x="180" y="245" width="80" height="30" as="geometry"/>
                </mxCell>
                <mxCell id="9" value="Observer" style="text;html=1;align=center;verticalAlign=middle;resizable=0;points=[];autosize=1;strokeColor=default;fillColor=#f5f5f5;fontColor=#333333;strokeWidth=1;labelBackgroundColor=none;" vertex="1" parent="1">
                    <mxGeometry x="465" y="245" width="70" height="30" as="geometry"/>
                </mxCell>
                <mxCell id="10" value="State Change&lt;br&gt;" style="text;html=1;align=center;verticalAlign=middle;resizable=0;points=[];autosize=1;strokeColor=none;fillColor=none;fontColor=#FFFFFF;strokeWidth=1;labelBackgroundColor=none;" vertex="1" parent="1">
                    <mxGeometry x="170" y="330" width="100" height="30" as="geometry"/>
                </mxCell>
                <mxCell id="11" value="" style="ellipse;whiteSpace=wrap;html=1;aspect=fixed;fillColor=#f5f5f5;fontColor=#333333;strokeColor=default;strokeWidth=1;labelBackgroundColor=none;" vertex="1" parent="1">
                    <mxGeometry x="200" y="360" width="40" height="40" as="geometry"/>
                </mxCell>
                <mxCell id="12" value="S1" style="text;html=1;strokeColor=none;fillColor=none;align=center;verticalAlign=middle;whiteSpace=wrap;rounded=0;fontColor=#333333;strokeWidth=1;labelBackgroundColor=none;" vertex="1" parent="1">
                    <mxGeometry x="190" y="365" width="60" height="30" as="geometry"/>
                </mxCell>
                <mxCell id="15" value="" style="ellipse;whiteSpace=wrap;html=1;aspect=fixed;fillColor=#f5f5f5;fontColor=#333333;strokeColor=default;strokeWidth=1;labelBackgroundColor=none;" vertex="1" parent="1">
                    <mxGeometry x="200" y="410" width="40" height="40" as="geometry"/>
                </mxCell>
                <mxCell id="16" value="" style="ellipse;whiteSpace=wrap;html=1;aspect=fixed;fillColor=#f5f5f5;fontColor=#333333;strokeColor=default;strokeWidth=1;labelBackgroundColor=none;" vertex="1" parent="1">
                    <mxGeometry x="200" y="460" width="40" height="40" as="geometry"/>
                </mxCell>
                <mxCell id="17" value="S2" style="text;html=1;strokeColor=none;fillColor=none;align=center;verticalAlign=middle;whiteSpace=wrap;rounded=0;fontColor=#333333;strokeWidth=1;labelBackgroundColor=none;" vertex="1" parent="1">
                    <mxGeometry x="191" y="415" width="60" height="30" as="geometry"/>
                </mxCell>
                <mxCell id="18" value="S3" style="text;html=1;strokeColor=none;fillColor=none;align=center;verticalAlign=middle;whiteSpace=wrap;rounded=0;fontColor=#333333;strokeWidth=1;labelBackgroundColor=none;" vertex="1" parent="1">
                    <mxGeometry x="191" y="465" width="60" height="30" as="geometry"/>
                </mxCell>
                <mxCell id="21" value="" style="endArrow=classic;html=1;exitX=0.25;exitY=0;exitDx=0;exitDy=0;entryX=0;entryY=0.25;entryDx=0;entryDy=0;fillColor=#f5f5f5;strokeColor=#666666;strokeWidth=1;labelBackgroundColor=none;" edge="1" parent="1" source="12" target="17">
                    <mxGeometry width="50" height="50" relative="1" as="geometry">
                        <mxPoint x="120" y="395" as="sourcePoint"/>
                        <mxPoint x="170" y="345" as="targetPoint"/>
                        <Array as="points">
                            <mxPoint x="170" y="410"/>
                        </Array>
                    </mxGeometry>
                </mxCell>
                <mxCell id="22" value="" style="endArrow=classic;html=1;exitX=0.25;exitY=0;exitDx=0;exitDy=0;entryX=0;entryY=0.5;entryDx=0;entryDy=0;fillColor=#f5f5f5;strokeColor=#666666;strokeWidth=1;labelBackgroundColor=none;" edge="1" parent="1" target="18">
                    <mxGeometry width="50" height="50" relative="1" as="geometry">
                        <mxPoint x="200" y="425" as="sourcePoint"/>
                        <mxPoint x="186" y="482.5" as="targetPoint"/>
                        <Array as="points">
                            <mxPoint x="165" y="470"/>
                        </Array>
                    </mxGeometry>
                </mxCell>
                <mxCell id="23" value="" style="ellipse;whiteSpace=wrap;html=1;aspect=fixed;fillColor=#f5f5f5;fontColor=#333333;strokeColor=default;strokeWidth=1;labelBackgroundColor=none;" vertex="1" parent="1">
                    <mxGeometry x="455" y="330" width="90" height="90" as="geometry"/>
                </mxCell>
                <mxCell id="24" value="" style="ellipse;whiteSpace=wrap;html=1;aspect=fixed;fillColor=#f5f5f5;fontColor=#333333;strokeColor=default;strokeWidth=1;labelBackgroundColor=none;" vertex="1" parent="1">
                    <mxGeometry x="462.5" y="435" width="75" height="75" as="geometry"/>
                </mxCell>
                <mxCell id="25" value="" style="ellipse;whiteSpace=wrap;html=1;aspect=fixed;fillColor=#f5f5f5;fontColor=#333333;strokeColor=default;strokeWidth=1;labelBackgroundColor=none;" vertex="1" parent="1">
                    <mxGeometry x="580" y="200" width="120" height="120" as="geometry"/>
                </mxCell>
                <mxCell id="26" value="" style="ellipse;whiteSpace=wrap;html=1;aspect=fixed;fillColor=#f5f5f5;fontColor=#333333;strokeColor=default;strokeWidth=1;labelBackgroundColor=none;" vertex="1" parent="1">
                    <mxGeometry x="595" y="330" width="90" height="90" as="geometry"/>
                </mxCell>
                <mxCell id="27" value="" style="ellipse;whiteSpace=wrap;html=1;aspect=fixed;fillColor=#f5f5f5;fontColor=#333333;strokeColor=default;strokeWidth=1;labelBackgroundColor=none;" vertex="1" parent="1">
                    <mxGeometry x="602.5" y="435" width="75" height="75" as="geometry"/>
                </mxCell>
                <mxCell id="28" value="" style="endArrow=classic;html=1;exitX=1;exitY=0.5;exitDx=0;exitDy=0;entryX=-0.028;entryY=0.561;entryDx=0;entryDy=0;entryPerimeter=0;fillColor=#f5f5f5;strokeColor=#666666;strokeWidth=1;labelBackgroundColor=none;" edge="1" parent="1" source="12" target="7">
                    <mxGeometry width="50" height="50" relative="1" as="geometry">
                        <mxPoint x="390" y="360" as="sourcePoint"/>
                        <mxPoint x="440" y="310" as="targetPoint"/>
                    </mxGeometry>
                </mxCell>
                <mxCell id="29" value="" style="endArrow=classic;html=1;exitX=1;exitY=0.5;exitDx=0;exitDy=0;fillColor=#f5f5f5;strokeColor=#666666;strokeWidth=1;labelBackgroundColor=none;" edge="1" parent="1" source="12">
                    <mxGeometry width="50" height="50" relative="1" as="geometry">
                        <mxPoint x="390" y="360" as="sourcePoint"/>
                        <mxPoint x="450" y="380" as="targetPoint"/>
                    </mxGeometry>
                </mxCell>
                <mxCell id="30" value="" style="endArrow=classic;html=1;exitX=1;exitY=0.5;exitDx=0;exitDy=0;entryX=-0.011;entryY=0.633;entryDx=0;entryDy=0;entryPerimeter=0;fillColor=#f5f5f5;strokeColor=#666666;strokeWidth=1;labelBackgroundColor=none;" edge="1" parent="1" source="17" target="7">
                    <mxGeometry width="50" height="50" relative="1" as="geometry">
                        <mxPoint x="260" y="390" as="sourcePoint"/>
                        <mxPoint x="460" y="390" as="targetPoint"/>
                    </mxGeometry>
                </mxCell>
                <mxCell id="31" value="" style="endArrow=classic;html=1;exitX=1;exitY=0.5;exitDx=0;exitDy=0;entryX=-0.011;entryY=0.633;entryDx=0;entryDy=0;entryPerimeter=0;fillColor=#f5f5f5;strokeColor=#666666;strokeWidth=1;labelBackgroundColor=none;" edge="1" parent="1" source="18">
                    <mxGeometry width="50" height="50" relative="1" as="geometry">
                        <mxPoint x="261" y="440" as="sourcePoint"/>
                        <mxPoint x="448.68000000000006" y="285.96000000000004" as="targetPoint"/>
                    </mxGeometry>
                </mxCell>
                <mxCell id="32" value="" style="endArrow=classic;html=1;exitX=1;exitY=0.5;exitDx=0;exitDy=0;fillColor=#f5f5f5;strokeColor=#666666;strokeWidth=1;labelBackgroundColor=none;" edge="1" parent="1">
                    <mxGeometry width="50" height="50" relative="1" as="geometry">
                        <mxPoint x="250" y="430" as="sourcePoint"/>
                        <mxPoint x="450" y="390" as="targetPoint"/>
                    </mxGeometry>
                </mxCell>
                <mxCell id="33" value="" style="endArrow=classic;html=1;exitX=1;exitY=0.5;exitDx=0;exitDy=0;fillColor=#f5f5f5;strokeColor=#666666;strokeWidth=1;labelBackgroundColor=none;" edge="1" parent="1">
                    <mxGeometry width="50" height="50" relative="1" as="geometry">
                        <mxPoint x="251" y="480" as="sourcePoint"/>
                        <mxPoint x="451" y="400" as="targetPoint"/>
                    </mxGeometry>
                </mxCell>
                <mxCell id="34" value="Observer observe Observable and see if the state of Onservable changes and&lt;br&gt;&amp;nbsp;if the state changes it notifies all the observer registered." style="text;html=1;align=center;verticalAlign=middle;resizable=0;points=[];autosize=1;strokeColor=default;fillColor=#f5f5f5;fontColor=#333333;strokeWidth=1;labelBackgroundColor=none;" vertex="1" parent="1">
                    <mxGeometry x="191" y="530" width="440" height="40" as="geometry"/>
                </mxCell>
                <mxCell id="35" value="ObservableInterface" style="swimlane;whiteSpace=wrap;html=1;fillColor=#f5f5f5;fontColor=#333333;strokeColor=#FFFFFF;strokeWidth=1;labelBackgroundColor=none;" vertex="1" parent="1">
                    <mxGeometry x="80" y="640" width="200" height="200" as="geometry"/>
                </mxCell>
                <mxCell id="37" value="&lt;div style=&quot;&quot;&gt;&lt;span style=&quot;&quot;&gt;add(ObserverInterface obj);&lt;/span&gt;&lt;br&gt;&lt;/div&gt;&lt;div style=&quot;&quot;&gt;&lt;span style=&quot;&quot;&gt;&lt;br&gt;&lt;/span&gt;&lt;/div&gt;&lt;div style=&quot;&quot;&gt;&lt;span style=&quot;&quot;&gt;remove(ObserverInterface obj);&lt;/span&gt;&lt;/div&gt;&lt;div style=&quot;&quot;&gt;&lt;span style=&quot;&quot;&gt;&lt;br&gt;&lt;/span&gt;&lt;/div&gt;&lt;div style=&quot;&quot;&gt;&lt;span style=&quot;&quot;&gt;notify();&lt;/span&gt;&lt;/div&gt;&lt;div style=&quot;&quot;&gt;&lt;span style=&quot;&quot;&gt;&lt;br&gt;&lt;/span&gt;&lt;/div&gt;&lt;div style=&quot;&quot;&gt;&lt;span style=&quot;&quot;&gt;setData();&lt;/span&gt;&lt;/div&gt;&lt;div style=&quot;&quot;&gt;&lt;span style=&quot;&quot;&gt;&lt;br&gt;&lt;/span&gt;&lt;/div&gt;&lt;div style=&quot;&quot;&gt;&lt;span style=&quot;&quot;&gt;getData();&lt;/span&gt;&lt;/div&gt;&lt;div style=&quot;&quot;&gt;&lt;span style=&quot;&quot;&gt;&lt;br&gt;&lt;/span&gt;&lt;/div&gt;" style="text;html=1;align=left;verticalAlign=middle;resizable=0;points=[];autosize=1;strokeColor=none;fillColor=#f5f5f5;fontColor=#333333;strokeWidth=1;labelBackgroundColor=none;" vertex="1" parent="35">
                    <mxGeometry x="5" y="35" width="190" height="160" as="geometry"/>
                </mxCell>
                <mxCell id="36" value="ObserverInterface" style="swimlane;whiteSpace=wrap;html=1;fillColor=#f5f5f5;fontColor=#333333;strokeColor=#FFFFFF;strokeWidth=1;labelBackgroundColor=none;" vertex="1" parent="1">
                    <mxGeometry x="477.5" y="640" width="200" height="200" as="geometry"/>
                </mxCell>
                <mxCell id="42" value="update();" style="text;html=1;align=left;verticalAlign=middle;resizable=0;points=[];autosize=1;strokeColor=none;fillColor=#f5f5f5;fontColor=#333333;strokeWidth=1;labelBackgroundColor=none;" vertex="1" parent="36">
                    <mxGeometry x="7.5" y="45" width="70" height="30" as="geometry"/>
                </mxCell>
                <mxCell id="39" value="&lt;div style=&quot;&quot;&gt;Registration&lt;/div&gt;" style="text;html=1;align=left;verticalAlign=middle;resizable=0;points=[];autosize=1;strokeColor=default;fillColor=#f5f5f5;fontColor=#333333;strokeWidth=1;labelBackgroundColor=none;" vertex="1" parent="1">
                    <mxGeometry x="10" y="580" width="90" height="30" as="geometry"/>
                </mxCell>
                <mxCell id="40" value="" style="edgeStyle=none;html=1;exitX=-0.005;exitY=0.235;exitDx=0;exitDy=0;exitPerimeter=0;fillColor=#f5f5f5;strokeColor=#666666;strokeWidth=1;labelBackgroundColor=none;" edge="1" parent="1" source="37" target="39">
                    <mxGeometry relative="1" as="geometry"/>
                </mxCell>
                <mxCell id="41" style="edgeStyle=none;html=1;entryX=0;entryY=0.5;entryDx=0;entryDy=0;fillColor=#f5f5f5;strokeColor=#666666;strokeWidth=1;labelBackgroundColor=none;" edge="1" parent="1" target="36">
                    <mxGeometry relative="1" as="geometry">
                        <mxPoint x="280" y="740" as="sourcePoint"/>
                    </mxGeometry>
                </mxCell>
                <mxCell id="43" value="has - a" style="text;html=1;align=center;verticalAlign=middle;resizable=0;points=[];autosize=1;strokeColor=none;fillColor=none;fontColor=#FFFFFF;strokeWidth=1;labelBackgroundColor=none;" vertex="1" parent="1">
                    <mxGeometry x="330" y="740" width="60" height="30" as="geometry"/>
                </mxCell>
                <mxCell id="44" value="(0, *)" style="text;html=1;align=center;verticalAlign=middle;resizable=0;points=[];autosize=1;strokeColor=none;fillColor=none;fontColor=#FFFFFF;strokeWidth=1;labelBackgroundColor=none;" vertex="1" parent="1">
                    <mxGeometry x="334" y="710" width="50" height="30" as="geometry"/>
                </mxCell>
                <mxCell id="46" value="ObservableConcreteClass" style="swimlane;whiteSpace=wrap;html=1;fillColor=#f5f5f5;fontColor=#333333;strokeColor=#FFFFFF;strokeWidth=1;labelBackgroundColor=none;" vertex="1" parent="1">
                    <mxGeometry x="60" y="960" width="240" height="400" as="geometry"/>
                </mxCell>
                <mxCell id="47" value="&lt;br&gt;&lt;div&gt;&lt;span style=&quot;&quot;&gt;List&amp;lt;ObserverInterface&amp;gt; objList;&lt;/span&gt;&lt;/div&gt;&lt;div&gt;&lt;span style=&quot;&quot;&gt;&lt;br&gt;&lt;/span&gt;&lt;/div&gt;int data;&lt;br&gt;&lt;br&gt;add (ObservableInterface obj) {&lt;br&gt;objList.add(obj);&lt;br&gt;}&lt;br&gt;&lt;br&gt;remove(ObservableInterface obj) {&lt;br&gt;objList.remove(obj);&lt;br&gt;}&lt;br&gt;&lt;br&gt;notify() {&lt;br&gt;for(ObservableInterface obj : objList) {&lt;br&gt;obj.update();&lt;br&gt;}&lt;br&gt;}&lt;br&gt;&lt;br&gt;setData(int t)&lt;br&gt;{&lt;br&gt;data = t;&lt;br&gt;notify();&lt;br&gt;}" style="text;html=1;align=left;verticalAlign=middle;resizable=0;points=[];autosize=1;strokeColor=none;fillColor=#f5f5f5;fontColor=#333333;strokeWidth=1;labelBackgroundColor=none;" vertex="1" parent="46">
                    <mxGeometry x="10" y="30" width="220" height="360" as="geometry"/>
                </mxCell>
                <mxCell id="49" value="" style="shape=flexArrow;endArrow=classic;html=1;exitX=0.586;exitY=-0.01;exitDx=0;exitDy=0;exitPerimeter=0;fillColor=#f5f5f5;strokeColor=default;strokeWidth=1;labelBackgroundColor=none;" edge="1" parent="1">
                    <mxGeometry width="50" height="50" relative="1" as="geometry">
                        <mxPoint x="178.63999999999987" y="955.5" as="sourcePoint"/>
                        <mxPoint x="179" y="846" as="targetPoint"/>
                    </mxGeometry>
                </mxCell>
                <mxCell id="50" value="Is - a" style="text;html=1;align=center;verticalAlign=middle;resizable=0;points=[];autosize=1;strokeColor=none;fillColor=none;fontColor=#FFFFFF;strokeWidth=1;labelBackgroundColor=none;" vertex="1" parent="1">
                    <mxGeometry x="190" y="895" width="50" height="30" as="geometry"/>
                </mxCell>
                <mxCell id="51" value="ObserverConcreteClass" style="swimlane;whiteSpace=wrap;html=1;fillColor=#f5f5f5;fontColor=#333333;strokeColor=#FFFFFF;strokeWidth=1;labelBackgroundColor=none;" vertex="1" parent="1">
                    <mxGeometry x="477.5" y="960" width="200" height="200" as="geometry"/>
                </mxCell>
                <mxCell id="52" value="ObservableInterface obj;&lt;br&gt;&lt;br&gt;update() {&lt;br&gt;&lt;br&gt;------&amp;nbsp;&lt;br&gt;obj.getData();&lt;br&gt;&lt;br&gt;}" style="text;html=1;align=left;verticalAlign=middle;resizable=0;points=[];autosize=1;strokeColor=none;fillColor=#f5f5f5;fontColor=#333333;strokeWidth=1;labelBackgroundColor=none;" vertex="1" parent="51">
                    <mxGeometry x="12.5" y="35" width="150" height="130" as="geometry"/>
                </mxCell>
                <mxCell id="53" value="" style="endArrow=classic;html=1;exitX=0;exitY=0.5;exitDx=0;exitDy=0;entryX=1;entryY=0.25;entryDx=0;entryDy=0;fillColor=#f5f5f5;strokeColor=#FFFFFF;strokeWidth=1;labelBackgroundColor=none;" edge="1" parent="1" source="51" target="46">
                    <mxGeometry width="50" height="50" relative="1" as="geometry">
                        <mxPoint x="320" y="1040" as="sourcePoint"/>
                        <mxPoint x="370" y="990" as="targetPoint"/>
                    </mxGeometry>
                </mxCell>
                <mxCell id="54" value="" style="shape=flexArrow;endArrow=classic;html=1;exitX=0.586;exitY=-0.01;exitDx=0;exitDy=0;exitPerimeter=0;entryX=0.504;entryY=1;entryDx=0;entryDy=0;entryPerimeter=0;fillColor=#f5f5f5;strokeColor=default;strokeWidth=1;labelBackgroundColor=none;" edge="1" parent="1">
                    <mxGeometry width="50" height="50" relative="1" as="geometry">
                        <mxPoint x="577.4399999999998" y="954.5" as="sourcePoint"/>
                        <mxPoint x="579.56" y="845" as="targetPoint"/>
                    </mxGeometry>
                </mxCell>
            </root>
        </mxGraphModel>
    </diagram>
</mxfile>